<svg xmlns="http://www.w3.org/2000/svg" width="21" height="15"><defs><linearGradient id="uf23uvpo__a" x1="50%" x2="50%" y1="0%" y2="100%"><stop offset="0%" stop-color="#fff"/><stop offset="100%" stop-color="#f0f0f0"/></linearGradient><linearGradient id="uf23uvpo__b" x1="50%" x2="50%" y1="0%" y2="100%"><stop offset="0%" stop-color="#0543a8"/><stop offset="100%" stop-color="#00307d"/></linearGradient><linearGradient id="uf23uvpo__c" x1="50%" x2="50%" y1="0%" y2="100%"><stop offset="0%" stop-color="#fcc747"/><stop offset="100%" stop-color="#fec539"/></linearGradient></defs><g fill="none" fill-rule="evenodd"><path fill="url(#uf23uvpo__a)" d="M0 0h21v15H0z"/><path fill="url(#uf23uvpo__b)" d="M0 0h21v15H0z"/><path fill="url(#uf23uvpo__c)" d="M0 10h21v2H0z"/><path fill="url(#uf23uvpo__a)" d="m6.5 6.267-1.176.851.447-1.381-1.173-.855 1.451-.003L6.5 3.5l.45 1.38 1.452.002-1.173.855.447 1.381zM3 3.575l-.882.639.335-1.036-.88-.642 1.089-.001L3 1.5l.338 1.035 1.089.001-.88.642.335 1.036z"/></g></svg>