<svg xmlns="http://www.w3.org/2000/svg" viewBox="0 0 21 15"><defs><linearGradient id="z8wm4ne3__a" x1="50%" x2="50%" y1="0%" y2="100%"><stop offset="0%" stop-color="#fff"/><stop offset="100%" stop-color="#f0f0f0"/></linearGradient><linearGradient id="z8wm4ne3__b" x1="50%" x2="50%" y1="0%" y2="100%"><stop offset="0%" stop-color="#ff2b37"/><stop offset="100%" stop-color="#fd0d1b"/></linearGradient></defs><g fill="none" fill-rule="evenodd"><path fill="url(#z8wm4ne3__a)" d="M0 0h21v15H0z"/><path fill="url(#z8wm4ne3__b)" d="M9 6H0v3h9v6h3V9h9V6h-9V0H9z"/><path fill="#fd0d1b" d="M16.2 2.7 16 1.5h1l-.2 1.2 1.2-.2v1l-1.2-.2.2 1.2h-1l.2-1.2-1.2.2v-1zm-12 0L4 1.5h1l-.2 1.2L6 2.5v1l-1.2-.2.2 1.2H4l.2-1.2-1.2.2v-1zm0 9L4 10.5h1l-.2 1.2 1.2-.2v1l-1.2-.2.2 1.2H4l.2-1.2-1.2.2v-1zm12 0-.2-1.2h1l-.2 1.2 1.2-.2v1l-1.2-.2.2 1.2h-1l.2-1.2-1.2.2v-1z"/></g></svg>