<svg xmlns="http://www.w3.org/2000/svg" viewBox="0 0 21 15"><defs><linearGradient id="cwlwueh2__a" x1="50%" x2="50%" y1="0%" y2="100%"><stop offset="0%" stop-color="#fff"/><stop offset="100%" stop-color="#f0f0f0"/></linearGradient><linearGradient id="cwlwueh2__b" x1="50%" x2="50%" y1="0%" y2="100%"><stop offset="0%" stop-color="#f71e24"/><stop offset="100%" stop-color="#fb141b"/></linearGradient><linearGradient id="cwlwueh2__c" x1="50%" x2="50%" y1="0%" y2="100%"><stop offset="0%" stop-color="#fb6c2c"/><stop offset="100%" stop-color="#fc6420"/></linearGradient><linearGradient id="cwlwueh2__d" x1="50%" x2="50%" y1="0%" y2="100%"><stop offset="0%" stop-color="#fdfc42"/><stop offset="100%" stop-color="#fffd38"/></linearGradient><linearGradient id="cwlwueh2__e" x1="50%" x2="50%" y1="0%" y2="100%"><stop offset="0%" stop-color="#238f35"/><stop offset="100%" stop-color="#1c7e2c"/></linearGradient><linearGradient id="cwlwueh2__f" x1="50%" x2="50%" y1="0%" y2="100%"><stop offset="0%" stop-color="#0f62fa"/><stop offset="100%" stop-color="#0059fc"/></linearGradient><linearGradient id="cwlwueh2__g" x1="50%" x2="50%" y1="0%" y2="100%"><stop offset="0%" stop-color="#820e95"/><stop offset="100%" stop-color="#760089"/></linearGradient></defs><g fill="none" fill-rule="evenodd"><path fill="url(#cwlwueh2__a)" d="M0 0h21v15H0z"/><path fill="url(#cwlwueh2__b)" d="M0 0h21v2.5H0z"/><path fill="url(#cwlwueh2__c)" d="M0 2.5h21V5H0z"/><path fill="url(#cwlwueh2__d)" d="M0 5h21v2.5H0z"/><path fill="url(#cwlwueh2__e)" d="M0 7.5h21V10H0z"/><path fill="url(#cwlwueh2__f)" d="M0 10h21v2.5H0z"/><path fill="url(#cwlwueh2__g)" d="M0 12.5h21V15H0z"/></g></svg>