<svg xmlns="http://www.w3.org/2000/svg" viewBox="0 0 21 15"><defs><linearGradient id="jyc0aa5f__a" x1="50%" x2="50%" y1="0%" y2="100%"><stop offset="0%" stop-color="#fff"/><stop offset="100%" stop-color="#f0f0f0"/></linearGradient><linearGradient id="jyc0aa5f__b" x1="50%" x2="50%" y1="0%" y2="100%"><stop offset="0%" stop-color="#e92434"/><stop offset="100%" stop-color="#e11324"/></linearGradient></defs><g fill="none" fill-rule="evenodd"><path fill="url(#jyc0aa5f__a)" d="M0 0h21v15H0z"/><path fill="url(#jyc0aa5f__b)" d="M0 0h21v15H0z"/><path fill="url(#jyc0aa5f__a)" d="M11.858 4.273a3.5 3.5 0 1 0 0 6.453 3.25 3.25 0 0 1 0-6.453M10.5 12a4.5 4.5 0 1 1 0-9 4.5 4.5 0 0 1 0 9m1.766-3.622 1.352.505-.775-1.218.898-1.13-1.398.361-.797-1.204-.088 1.441-1.391.386 1.343.53-.063 1.442z"/></g></svg>