<svg xmlns="http://www.w3.org/2000/svg" width="21" height="15"><defs><linearGradient id="h2s5hk8i__a" x1="50%" x2="50%" y1="0%" y2="100%"><stop offset="0%" stop-color="#fff"/><stop offset="100%" stop-color="#f0f0f0"/></linearGradient><linearGradient id="h2s5hk8i__b" x1="50%" x2="50%" y1="0%" y2="100%"><stop offset="0%" stop-color="#72afc8"/><stop offset="100%" stop-color="#5d98b0"/></linearGradient><linearGradient id="h2s5hk8i__c" x1="50%" x2="50%" y1="0%" y2="100%"><stop offset="0%" stop-color="#0a17a7"/><stop offset="100%" stop-color="#030e88"/></linearGradient><linearGradient id="h2s5hk8i__d" x1="50%" x2="50%" y1="0%" y2="100%"><stop offset="0%" stop-color="#db1e36"/><stop offset="100%" stop-color="#d51931"/></linearGradient></defs><g fill="none" fill-rule="evenodd"><path fill="url(#h2s5hk8i__a)" d="M0 0h21v15H0z"/><path fill="url(#h2s5hk8i__b)" d="M0 0h21v15H0z"/><path fill="#ffcd2f" d="m9 13-.707.207.207-.707-.207-.707L9 12l.707-.207-.207.707.207.707zm3-1-.707.207.207-.707-.207-.707L12 11l.707-.207-.207.707.207.707zm3 0-.707.207.207-.707-.207-.707L15 11l.707-.207-.207.707.207.707zm2-2-.707.207.207-.707-.207-.707L17 9l.707-.207-.207.707.207.707zm2-2-.707.207.207-.707-.207-.707L19 7l.707-.207-.207.707.207.707zm-6 1-.707.207.207-.707-.207-.707L13 8l.707-.207-.207.707.207.707zm2-4-.707.207.207-.707-.207-.707L15 4l.707-.207-.207.707.207.707zm2-1-.707.207.207-.707-.207-.707L17 3l.707-.207-.207.707.207.707zm2-1-.707.207.207-.707-.207-.707L19 2l.707-.207-.207.707.207.707z"/><path fill="url(#h2s5hk8i__c)" d="M0 0h9v7H0z"/><path fill="url(#h2s5hk8i__a)" fill-rule="nonzero" d="M3 3.23-1.352-.5H.66L4.16 2h.697L9.5-.902V.25c0 .303-.167.627-.418.806L6 3.257v.513l3.137 2.69c.462.395.204 1.04-.387 1.04-.245 0-.545-.096-.75-.242L4.84 5h-.697L-.5 7.902v-1.66l3.5-2.5z"/><path fill="url(#h2s5hk8i__d)" d="M3.5 3 0 0h.5L4 2.5h1L9 0v.25a.54.54 0 0 1-.208.399L5.5 3v1l3.312 2.839c.104.089.072.161-.062.161a.9.9 0 0 1-.458-.149L5 4.5H4L0 7v-.5L3.5 4z"/><path fill="url(#h2s5hk8i__a)" d="M0 2.5v2h3.5v2.505c0 .273.214.495.505.495h.99a.496.496 0 0 0 .505-.495V4.5h3.51a.49.49 0 0 0 .49-.505v-.99a.495.495 0 0 0-.49-.505H5.5V0h-2v2.5z"/><path fill="url(#h2s5hk8i__d)" d="M0 3h4V0h1v3h4v1H5v3H4V4H0z"/></g></svg>