<svg xmlns="http://www.w3.org/2000/svg" viewBox="0 0 15 15"><defs><linearGradient id="nih9k1ga__a" x1="50%" x2="50%" y1="0%" y2="100%"><stop offset="0%" stop-color="#ffd44d"/><stop offset="100%" stop-color="#ffcd2f"/></linearGradient><linearGradient id="nih9k1ga__b" x1="50%" x2="50%" y1="0%" y2="100%"><stop offset="0%" stop-color="#159a74"/><stop offset="100%" stop-color="#0c6a4f"/></linearGradient><linearGradient id="nih9k1ga__c" x1="50%" x2="50%" y1="0%" y2="100%"><stop offset="0%" stop-color="#ed1f45"/><stop offset="100%" stop-color="#d01739"/></linearGradient><linearGradient id="nih9k1ga__d" x1="50%" x2="50%" y1="0%" y2="100%"><stop offset="0%" stop-color="#fff"/><stop offset="100%" stop-color="#f0f0f0"/></linearGradient></defs><g fill="none" fill-rule="evenodd"><path fill="url(#nih9k1ga__a)" d="M0 0h15v15H0z"/><path fill="url(#nih9k1ga__b)" fill-rule="nonzero" d="M6.429 0H15v3H6.429zm0 6H15v3H6.429zM0 12h15v3H0z"/><path fill="url(#nih9k1ga__c)" d="M0 0h9v9H0z"/><path fill="url(#nih9k1ga__d)" d="M4.5 5.67 2.737 6.927l.65-2.065-1.74-1.29 2.165-.019L4.5 1.5l.688 2.053 2.165.02-1.74 1.289.65 2.065z"/></g></svg>